<?xml version="1.0" encoding="UTF-8" standalone="no"?>
<!DOCTYPE svg PUBLIC "-//W3C//DTD SVG 1.1//EN"
 "http://www.w3.org/Graphics/SVG/1.1/DTD/svg11.dtd">
<!-- Generated by graphviz version 9.0.0 (20230911.1827)
 -->
<!-- Pages: 1 -->
<svg width="3036pt" height="692pt"
 viewBox="0.00 0.00 3036.43 692.00" xmlns="http://www.w3.org/2000/svg" xmlns:xlink="http://www.w3.org/1999/xlink">
<g id="graph0" class="graph" transform="scale(1 1) rotate(0) translate(4 688)">
<polygon fill="white" stroke="none" points="-4,4 -4,-688 3032.43,-688 3032.43,4 -4,4"/>
<!-- [root] aws_instance.cicd_server (expand) -->
<g id="node1" class="node">
<title>[root] aws_instance.cicd_server (expand)</title>
<polygon fill="none" stroke="black" points="2371.43,-540 2212.18,-540 2212.18,-504 2371.43,-504 2371.43,-540"/>
<text text-anchor="middle" x="2291.8" y="-516.58" font-family="Times New Roman,serif" font-size="14.00">aws_instance.cicd_server</text>
</g>
<!-- [root] aws_security_group.cicd_security_group (expand) -->
<g id="node3" class="node">
<title>[root] aws_security_group.cicd_security_group (expand)</title>
<polygon fill="none" stroke="black" points="2333.05,-468 2084.55,-468 2084.55,-432 2333.05,-432 2333.05,-468"/>
<text text-anchor="middle" x="2208.8" y="-444.57" font-family="Times New Roman,serif" font-size="14.00">aws_security_group.cicd_security_group</text>
</g>
<!-- [root] aws_instance.cicd_server (expand)&#45;&gt;[root] aws_security_group.cicd_security_group (expand) -->
<g id="edge1" class="edge">
<title>[root] aws_instance.cicd_server (expand)&#45;&gt;[root] aws_security_group.cicd_security_group (expand)</title>
<path fill="none" stroke="black" d="M2271.29,-503.7C2261.21,-495.2 2248.9,-484.81 2237.87,-475.51"/>
<polygon fill="black" stroke="black" points="2240.43,-473.09 2230.53,-469.32 2235.92,-478.45 2240.43,-473.09"/>
</g>
<!-- [root] var.ami_id -->
<g id="node17" class="node">
<title>[root] var.ami_id</title>
<polygon fill="none" stroke="black" points="2689.05,-468 2620.55,-468 2620.55,-432 2695.05,-432 2695.05,-462 2689.05,-468"/>
<polyline fill="none" stroke="black" points="2689.05,-468 2689.05,-462"/>
<polyline fill="none" stroke="black" points="2695.05,-462 2689.05,-462"/>
<text text-anchor="middle" x="2657.8" y="-444.57" font-family="Times New Roman,serif" font-size="14.00">var.ami_id</text>
</g>
<!-- [root] aws_instance.cicd_server (expand)&#45;&gt;[root] var.ami_id -->
<g id="edge3" class="edge">
<title>[root] aws_instance.cicd_server (expand)&#45;&gt;[root] var.ami_id</title>
<path fill="none" stroke="black" d="M2371.93,-512.02C2434.52,-504.02 2523.7,-490.48 2609.14,-468.46"/>
<polygon fill="black" stroke="black" points="2609.84,-471.9 2618.62,-465.97 2608.06,-465.13 2609.84,-471.9"/>
</g>
<!-- [root] var.instance_type -->
<g id="node19" class="node">
<title>[root] var.instance_type</title>
<polygon fill="none" stroke="black" points="2458.55,-468 2351.05,-468 2351.05,-432 2464.55,-432 2464.55,-462 2458.55,-468"/>
<polyline fill="none" stroke="black" points="2458.55,-468 2458.55,-462"/>
<polyline fill="none" stroke="black" points="2464.55,-462 2458.55,-462"/>
<text text-anchor="middle" x="2407.8" y="-444.57" font-family="Times New Roman,serif" font-size="14.00">var.instance_type</text>
</g>
<!-- [root] aws_instance.cicd_server (expand)&#45;&gt;[root] var.instance_type -->
<g id="edge4" class="edge">
<title>[root] aws_instance.cicd_server (expand)&#45;&gt;[root] var.instance_type</title>
<path fill="none" stroke="black" d="M2320.78,-503.52C2335.56,-494.6 2353.73,-483.63 2369.64,-474.03"/>
<polygon fill="black" stroke="black" points="2371.15,-477.21 2377.91,-469.04 2367.54,-471.21 2371.15,-477.21"/>
</g>
<!-- [root] var.ssh_key_name -->
<g id="node22" class="node">
<title>[root] var.ssh_key_name</title>
<polygon fill="none" stroke="black" points="2596.55,-468 2483.05,-468 2483.05,-432 2602.55,-432 2602.55,-462 2596.55,-468"/>
<polyline fill="none" stroke="black" points="2596.55,-468 2596.55,-462"/>
<polyline fill="none" stroke="black" points="2602.55,-462 2596.55,-462"/>
<text text-anchor="middle" x="2542.8" y="-444.57" font-family="Times New Roman,serif" font-size="14.00">var.ssh_key_name</text>
</g>
<!-- [root] aws_instance.cicd_server (expand)&#45;&gt;[root] var.ssh_key_name -->
<g id="edge5" class="edge">
<title>[root] aws_instance.cicd_server (expand)&#45;&gt;[root] var.ssh_key_name</title>
<path fill="none" stroke="black" d="M2354.5,-503.52C2390.18,-493.57 2434.99,-481.07 2471.94,-470.76"/>
<polygon fill="black" stroke="black" points="2472.49,-474.24 2481.18,-468.19 2470.61,-467.5 2472.49,-474.24"/>
</g>
<!-- [root] module.vpc.output.public_subnet_id (expand) -->
<g id="node23" class="node">
<title>[root] module.vpc.output.public_subnet_id (expand)</title>
<ellipse fill="none" stroke="black" cx="1859.8" cy="-450" rx="207.25" ry="18"/>
<text text-anchor="middle" x="1859.8" y="-444.57" font-family="Times New Roman,serif" font-size="14.00">[root] module.vpc.output.public_subnet_id (expand)</text>
</g>
<!-- [root] aws_instance.cicd_server (expand)&#45;&gt;[root] module.vpc.output.public_subnet_id (expand) -->
<g id="edge2" class="edge">
<title>[root] aws_instance.cicd_server (expand)&#45;&gt;[root] module.vpc.output.public_subnet_id (expand)</title>
<path fill="none" stroke="black" d="M2211.81,-508.04C2142.54,-496.81 2041.79,-480.49 1965.82,-468.18"/>
<polygon fill="black" stroke="black" points="1966.72,-464.78 1956.29,-466.63 1965.6,-471.69 1966.72,-464.78"/>
</g>
<!-- [root] aws_instance.monitoring_server (expand) -->
<g id="node2" class="node">
<title>[root] aws_instance.monitoring_server (expand)</title>
<polygon fill="none" stroke="black" points="2640.43,-540 2445.18,-540 2445.18,-504 2640.43,-504 2640.43,-540"/>
<text text-anchor="middle" x="2542.8" y="-516.58" font-family="Times New Roman,serif" font-size="14.00">aws_instance.monitoring_server</text>
</g>
<!-- [root] aws_security_group.monitoring_security_group (expand) -->
<g id="node4" class="node">
<title>[root] aws_security_group.monitoring_security_group (expand)</title>
<polygon fill="none" stroke="black" points="2998.05,-468 2713.55,-468 2713.55,-432 2998.05,-432 2998.05,-468"/>
<text text-anchor="middle" x="2855.8" y="-444.57" font-family="Times New Roman,serif" font-size="14.00">aws_security_group.monitoring_security_group</text>
</g>
<!-- [root] aws_instance.monitoring_server (expand)&#45;&gt;[root] aws_security_group.monitoring_security_group (expand) -->
<g id="edge6" class="edge">
<title>[root] aws_instance.monitoring_server (expand)&#45;&gt;[root] aws_security_group.monitoring_security_group (expand)</title>
<path fill="none" stroke="black" d="M2620.98,-503.52C2665.23,-493.62 2720.72,-481.21 2766.66,-470.94"/>
<polygon fill="black" stroke="black" points="2767.34,-474.37 2776.34,-468.77 2765.81,-467.54 2767.34,-474.37"/>
</g>
<!-- [root] aws_instance.monitoring_server (expand)&#45;&gt;[root] var.ami_id -->
<g id="edge8" class="edge">
<title>[root] aws_instance.monitoring_server (expand)&#45;&gt;[root] var.ami_id</title>
<path fill="none" stroke="black" d="M2571.53,-503.52C2586.18,-494.6 2604.2,-483.63 2619.97,-474.03"/>
<polygon fill="black" stroke="black" points="2621.43,-477.24 2628.16,-469.05 2617.79,-471.26 2621.43,-477.24"/>
</g>
<!-- [root] aws_instance.monitoring_server (expand)&#45;&gt;[root] var.instance_type -->
<g id="edge9" class="edge">
<title>[root] aws_instance.monitoring_server (expand)&#45;&gt;[root] var.instance_type</title>
<path fill="none" stroke="black" d="M2509.09,-503.52C2491.56,-494.43 2469.94,-483.22 2451.18,-473.49"/>
<polygon fill="black" stroke="black" points="2452.93,-470.45 2442.44,-468.96 2449.7,-476.67 2452.93,-470.45"/>
</g>
<!-- [root] aws_instance.monitoring_server (expand)&#45;&gt;[root] var.ssh_key_name -->
<g id="edge10" class="edge">
<title>[root] aws_instance.monitoring_server (expand)&#45;&gt;[root] var.ssh_key_name</title>
<path fill="none" stroke="black" d="M2542.8,-503.7C2542.8,-496.41 2542.8,-487.73 2542.8,-479.54"/>
<polygon fill="black" stroke="black" points="2546.3,-479.62 2542.8,-469.62 2539.3,-479.62 2546.3,-479.62"/>
</g>
<!-- [root] aws_instance.monitoring_server (expand)&#45;&gt;[root] module.vpc.output.public_subnet_id (expand) -->
<g id="edge7" class="edge">
<title>[root] aws_instance.monitoring_server (expand)&#45;&gt;[root] module.vpc.output.public_subnet_id (expand)</title>
<path fill="none" stroke="black" d="M2444.72,-510.66C2423.64,-508.45 2401.48,-506.14 2380.8,-504 2252.97,-490.79 2107.47,-476.01 2002.78,-465.42"/>
<polygon fill="black" stroke="black" points="2003.31,-461.96 1993.01,-464.43 2002.61,-468.92 2003.31,-461.96"/>
</g>
<!-- [root] provider[&quot;registry.terraform.io/hashicorp/aws&quot;] -->
<g id="node16" class="node">
<title>[root] provider[&quot;registry.terraform.io/hashicorp/aws&quot;]</title>
<polygon fill="none" stroke="black" points="2688.8,-396 2426.05,-378 2688.8,-360 2951.56,-378 2688.8,-396"/>
<text text-anchor="middle" x="2688.8" y="-372.57" font-family="Times New Roman,serif" font-size="14.00">provider[&quot;registry.terraform.io/hashicorp/aws&quot;]</text>
</g>
<!-- [root] aws_security_group.cicd_security_group (expand)&#45;&gt;[root] provider[&quot;registry.terraform.io/hashicorp/aws&quot;] -->
<g id="edge12" class="edge">
<title>[root] aws_security_group.cicd_security_group (expand)&#45;&gt;[root] provider[&quot;registry.terraform.io/hashicorp/aws&quot;]</title>
<path fill="none" stroke="black" d="M2328.69,-431.52C2411.53,-419.44 2520.09,-403.6 2596.28,-392.49"/>
<polygon fill="black" stroke="black" points="2596.39,-396.01 2605.78,-391.11 2595.38,-389.09 2596.39,-396.01"/>
</g>
<!-- [root] module.vpc.output.vpc_id (expand) -->
<g id="node24" class="node">
<title>[root] module.vpc.output.vpc_id (expand)</title>
<ellipse fill="none" stroke="black" cx="2072.8" cy="-378" rx="168.83" ry="18"/>
<text text-anchor="middle" x="2072.8" y="-372.57" font-family="Times New Roman,serif" font-size="14.00">[root] module.vpc.output.vpc_id (expand)</text>
</g>
<!-- [root] aws_security_group.cicd_security_group (expand)&#45;&gt;[root] module.vpc.output.vpc_id (expand) -->
<g id="edge11" class="edge">
<title>[root] aws_security_group.cicd_security_group (expand)&#45;&gt;[root] module.vpc.output.vpc_id (expand)</title>
<path fill="none" stroke="black" d="M2174.84,-431.52C2157.05,-422.36 2135.07,-411.05 2116.07,-401.27"/>
<polygon fill="black" stroke="black" points="2117.71,-398.18 2107.22,-396.71 2114.51,-404.4 2117.71,-398.18"/>
</g>
<!-- [root] aws_security_group.monitoring_security_group (expand)&#45;&gt;[root] provider[&quot;registry.terraform.io/hashicorp/aws&quot;] -->
<g id="edge14" class="edge">
<title>[root] aws_security_group.monitoring_security_group (expand)&#45;&gt;[root] provider[&quot;registry.terraform.io/hashicorp/aws&quot;]</title>
<path fill="none" stroke="black" d="M2814.09,-431.52C2790.11,-421.46 2759.93,-408.81 2735.2,-398.45"/>
<polygon fill="black" stroke="black" points="2736.59,-395.23 2726.01,-394.59 2733.88,-401.69 2736.59,-395.23"/>
</g>
<!-- [root] aws_security_group.monitoring_security_group (expand)&#45;&gt;[root] module.vpc.output.vpc_id (expand) -->
<g id="edge13" class="edge">
<title>[root] aws_security_group.monitoring_security_group (expand)&#45;&gt;[root] module.vpc.output.vpc_id (expand)</title>
<path fill="none" stroke="black" d="M2713.42,-432.95C2710.18,-432.63 2706.98,-432.31 2703.8,-432 2537.73,-415.74 2346.75,-400.13 2218.79,-390.11"/>
<polygon fill="black" stroke="black" points="2219.13,-386.63 2208.89,-389.34 2218.59,-393.61 2219.13,-386.63"/>
</g>
<!-- [root] module.vpc.aws_eip.nat (expand) -->
<g id="node5" class="node">
<title>[root] module.vpc.aws_eip.nat (expand)</title>
<polygon fill="none" stroke="black" points="1141.68,-252 989.93,-252 989.93,-216 1141.68,-216 1141.68,-252"/>
<text text-anchor="middle" x="1065.8" y="-228.57" font-family="Times New Roman,serif" font-size="14.00">module.vpc.aws_eip.nat</text>
</g>
<!-- [root] module.vpc.provider[&quot;registry.terraform.io/hashicorp/aws&quot;] -->
<g id="node15" class="node">
<title>[root] module.vpc.provider[&quot;registry.terraform.io/hashicorp/aws&quot;]</title>
<polygon fill="none" stroke="black" points="1186.8,-180 858.43,-162 1186.8,-144 1515.18,-162 1186.8,-180"/>
<text text-anchor="middle" x="1186.8" y="-156.57" font-family="Times New Roman,serif" font-size="14.00">module.vpc.provider[&quot;registry.terraform.io/hashicorp/aws&quot;]</text>
</g>
<!-- [root] module.vpc.aws_eip.nat (expand)&#45;&gt;[root] module.vpc.provider[&quot;registry.terraform.io/hashicorp/aws&quot;] -->
<g id="edge22" class="edge">
<title>[root] module.vpc.aws_eip.nat (expand)&#45;&gt;[root] module.vpc.provider[&quot;registry.terraform.io/hashicorp/aws&quot;]</title>
<path fill="none" stroke="black" d="M1096.03,-215.52C1112.29,-206.11 1132.5,-194.42 1149.71,-184.46"/>
<polygon fill="black" stroke="black" points="1151.23,-187.62 1158.14,-179.59 1147.73,-181.56 1151.23,-187.62"/>
</g>
<!-- [root] module.vpc.aws_internet_gateway.igw (expand) -->
<g id="node6" class="node">
<title>[root] module.vpc.aws_internet_gateway.igw (expand)</title>
<polygon fill="none" stroke="black" points="1457.43,-324 1226.18,-324 1226.18,-288 1457.43,-288 1457.43,-324"/>
<text text-anchor="middle" x="1341.8" y="-300.57" font-family="Times New Roman,serif" font-size="14.00">module.vpc.aws_internet_gateway.igw</text>
</g>
<!-- [root] module.vpc.aws_vpc.DevOps_infra (expand) -->
<g id="node14" class="node">
<title>[root] module.vpc.aws_vpc.DevOps_infra (expand)</title>
<polygon fill="none" stroke="black" points="1611.05,-252 1392.55,-252 1392.55,-216 1611.05,-216 1611.05,-252"/>
<text text-anchor="middle" x="1501.8" y="-228.57" font-family="Times New Roman,serif" font-size="14.00">module.vpc.aws_vpc.DevOps_infra</text>
</g>
<!-- [root] module.vpc.aws_internet_gateway.igw (expand)&#45;&gt;[root] module.vpc.aws_vpc.DevOps_infra (expand) -->
<g id="edge23" class="edge">
<title>[root] module.vpc.aws_internet_gateway.igw (expand)&#45;&gt;[root] module.vpc.aws_vpc.DevOps_infra (expand)</title>
<path fill="none" stroke="black" d="M1381.77,-287.52C1402.94,-278.25 1429.16,-266.78 1451.69,-256.93"/>
<polygon fill="black" stroke="black" points="1452.93,-260.2 1460.69,-252.99 1450.12,-253.79 1452.93,-260.2"/>
</g>
<!-- [root] module.vpc.aws_nat_gateway.nat (expand) -->
<g id="node7" class="node">
<title>[root] module.vpc.aws_nat_gateway.nat (expand)</title>
<polygon fill="none" stroke="black" points="1261.93,-396 1057.68,-396 1057.68,-360 1261.93,-360 1261.93,-396"/>
<text text-anchor="middle" x="1159.8" y="-372.57" font-family="Times New Roman,serif" font-size="14.00">module.vpc.aws_nat_gateway.nat</text>
</g>
<!-- [root] module.vpc.aws_nat_gateway.nat (expand)&#45;&gt;[root] module.vpc.aws_eip.nat (expand) -->
<g id="edge24" class="edge">
<title>[root] module.vpc.aws_nat_gateway.nat (expand)&#45;&gt;[root] module.vpc.aws_eip.nat (expand)</title>
<path fill="none" stroke="black" d="M1148.28,-359.59C1132.05,-335.08 1102.34,-290.19 1083.36,-261.52"/>
<polygon fill="black" stroke="black" points="1086.41,-259.78 1077.97,-253.37 1080.57,-263.64 1086.41,-259.78"/>
</g>
<!-- [root] module.vpc.aws_nat_gateway.nat (expand)&#45;&gt;[root] module.vpc.aws_internet_gateway.igw (expand) -->
<g id="edge25" class="edge">
<title>[root] module.vpc.aws_nat_gateway.nat (expand)&#45;&gt;[root] module.vpc.aws_internet_gateway.igw (expand)</title>
<path fill="none" stroke="black" d="M1205.26,-359.52C1229.78,-350.08 1260.25,-338.37 1286.18,-328.39"/>
<polygon fill="black" stroke="black" points="1287.12,-331.78 1295.2,-324.93 1284.61,-325.25 1287.12,-331.78"/>
</g>
<!-- [root] module.vpc.aws_subnet.public_subnets (expand) -->
<g id="node13" class="node">
<title>[root] module.vpc.aws_subnet.public_subnets (expand)</title>
<polygon fill="none" stroke="black" points="1715.93,-324 1475.68,-324 1475.68,-288 1715.93,-288 1715.93,-324"/>
<text text-anchor="middle" x="1595.8" y="-300.57" font-family="Times New Roman,serif" font-size="14.00">module.vpc.aws_subnet.public_subnets</text>
</g>
<!-- [root] module.vpc.aws_nat_gateway.nat (expand)&#45;&gt;[root] module.vpc.aws_subnet.public_subnets (expand) -->
<g id="edge26" class="edge">
<title>[root] module.vpc.aws_nat_gateway.nat (expand)&#45;&gt;[root] module.vpc.aws_subnet.public_subnets (expand)</title>
<path fill="none" stroke="black" d="M1262.3,-360.54C1326.33,-350.26 1409.04,-336.99 1476.08,-326.22"/>
<polygon fill="black" stroke="black" points="1476.31,-329.73 1485.63,-324.69 1475.2,-322.82 1476.31,-329.73"/>
</g>
<!-- [root] module.vpc.aws_route_table.private_subnet_rt (expand) -->
<g id="node8" class="node">
<title>[root] module.vpc.aws_route_table.private_subnet_rt (expand)</title>
<polygon fill="none" stroke="black" points="1279.05,-468 1000.55,-468 1000.55,-432 1279.05,-432 1279.05,-468"/>
<text text-anchor="middle" x="1139.8" y="-444.57" font-family="Times New Roman,serif" font-size="14.00">module.vpc.aws_route_table.private_subnet_rt</text>
</g>
<!-- [root] module.vpc.aws_route_table.private_subnet_rt (expand)&#45;&gt;[root] module.vpc.aws_nat_gateway.nat (expand) -->
<g id="edge27" class="edge">
<title>[root] module.vpc.aws_route_table.private_subnet_rt (expand)&#45;&gt;[root] module.vpc.aws_nat_gateway.nat (expand)</title>
<path fill="none" stroke="black" d="M1144.75,-431.7C1146.88,-424.24 1149.43,-415.32 1151.81,-406.97"/>
<polygon fill="black" stroke="black" points="1155.12,-408.14 1154.5,-397.56 1148.39,-406.21 1155.12,-408.14"/>
</g>
<!-- [root] module.vpc.aws_route_table.public_subnet_rt (expand) -->
<g id="node9" class="node">
<title>[root] module.vpc.aws_route_table.public_subnet_rt (expand)</title>
<polygon fill="none" stroke="black" points="1555.55,-396 1280.05,-396 1280.05,-360 1555.55,-360 1555.55,-396"/>
<text text-anchor="middle" x="1417.8" y="-372.57" font-family="Times New Roman,serif" font-size="14.00">module.vpc.aws_route_table.public_subnet_rt</text>
</g>
<!-- [root] module.vpc.aws_route_table.public_subnet_rt (expand)&#45;&gt;[root] module.vpc.aws_internet_gateway.igw (expand) -->
<g id="edge28" class="edge">
<title>[root] module.vpc.aws_route_table.public_subnet_rt (expand)&#45;&gt;[root] module.vpc.aws_internet_gateway.igw (expand)</title>
<path fill="none" stroke="black" d="M1399.02,-359.7C1389.97,-351.37 1378.96,-341.22 1369.02,-332.07"/>
<polygon fill="black" stroke="black" points="1371.48,-329.57 1361.75,-325.37 1366.74,-334.72 1371.48,-329.57"/>
</g>
<!-- [root] module.vpc.aws_route_table_association.private_subnet_asso (expand) -->
<g id="node10" class="node">
<title>[root] module.vpc.aws_route_table_association.private_subnet_asso (expand)</title>
<polygon fill="none" stroke="black" points="1217.55,-540 852.05,-540 852.05,-504 1217.55,-504 1217.55,-540"/>
<text text-anchor="middle" x="1034.8" y="-516.58" font-family="Times New Roman,serif" font-size="14.00">module.vpc.aws_route_table_association.private_subnet_asso</text>
</g>
<!-- [root] module.vpc.aws_route_table_association.private_subnet_asso (expand)&#45;&gt;[root] module.vpc.aws_route_table.private_subnet_rt (expand) -->
<g id="edge29" class="edge">
<title>[root] module.vpc.aws_route_table_association.private_subnet_asso (expand)&#45;&gt;[root] module.vpc.aws_route_table.private_subnet_rt (expand)</title>
<path fill="none" stroke="black" d="M1061.03,-503.52C1074.16,-494.76 1090.24,-484.04 1104.44,-474.58"/>
<polygon fill="black" stroke="black" points="1106.28,-477.56 1112.65,-469.1 1102.39,-471.73 1106.28,-477.56"/>
</g>
<!-- [root] module.vpc.aws_subnet.private_subnets (expand) -->
<g id="node12" class="node">
<title>[root] module.vpc.aws_subnet.private_subnets (expand)</title>
<polygon fill="none" stroke="black" points="980.43,-468 737.18,-468 737.18,-432 980.43,-432 980.43,-468"/>
<text text-anchor="middle" x="858.8" y="-444.57" font-family="Times New Roman,serif" font-size="14.00">module.vpc.aws_subnet.private_subnets</text>
</g>
<!-- [root] module.vpc.aws_route_table_association.private_subnet_asso (expand)&#45;&gt;[root] module.vpc.aws_subnet.private_subnets (expand) -->
<g id="edge30" class="edge">
<title>[root] module.vpc.aws_route_table_association.private_subnet_asso (expand)&#45;&gt;[root] module.vpc.aws_subnet.private_subnets (expand)</title>
<path fill="none" stroke="black" d="M990.85,-503.52C967.24,-494.13 937.93,-482.47 912.93,-472.53"/>
<polygon fill="black" stroke="black" points="914.5,-469.38 903.91,-468.94 911.91,-475.89 914.5,-469.38"/>
</g>
<!-- [root] module.vpc.aws_route_table_association.public_subnet_asso (expand) -->
<g id="node11" class="node">
<title>[root] module.vpc.aws_route_table_association.public_subnet_asso (expand)</title>
<polygon fill="none" stroke="black" points="1598.05,-540 1235.55,-540 1235.55,-504 1598.05,-504 1598.05,-540"/>
<text text-anchor="middle" x="1416.8" y="-516.58" font-family="Times New Roman,serif" font-size="14.00">module.vpc.aws_route_table_association.public_subnet_asso</text>
</g>
<!-- [root] module.vpc.aws_route_table_association.public_subnet_asso (expand)&#45;&gt;[root] module.vpc.aws_route_table.public_subnet_rt (expand) -->
<g id="edge31" class="edge">
<title>[root] module.vpc.aws_route_table_association.public_subnet_asso (expand)&#45;&gt;[root] module.vpc.aws_route_table.public_subnet_rt (expand)</title>
<path fill="none" stroke="black" d="M1416.93,-503.59C1417.1,-479.61 1417.4,-436.14 1417.6,-407.42"/>
<polygon fill="black" stroke="black" points="1421.1,-407.65 1417.67,-397.62 1414.1,-407.6 1421.1,-407.65"/>
</g>
<!-- [root] module.vpc.aws_route_table_association.public_subnet_asso (expand)&#45;&gt;[root] module.vpc.aws_subnet.public_subnets (expand) -->
<g id="edge32" class="edge">
<title>[root] module.vpc.aws_route_table_association.public_subnet_asso (expand)&#45;&gt;[root] module.vpc.aws_subnet.public_subnets (expand)</title>
<path fill="none" stroke="black" d="M1445.6,-503.54C1478.74,-482.08 1532.7,-442.7 1564.8,-396 1577.35,-377.75 1585.3,-353.92 1590,-335.51"/>
<polygon fill="black" stroke="black" points="1593.4,-336.32 1592.29,-325.78 1586.59,-334.71 1593.4,-336.32"/>
</g>
<!-- [root] module.vpc.aws_subnet.private_subnets (expand)&#45;&gt;[root] module.vpc.aws_vpc.DevOps_infra (expand) -->
<g id="edge33" class="edge">
<title>[root] module.vpc.aws_subnet.private_subnets (expand)&#45;&gt;[root] module.vpc.aws_vpc.DevOps_infra (expand)</title>
<path fill="none" stroke="black" d="M895.06,-431.58C933.18,-413.37 994.96,-384.14 1048.8,-360 1122.93,-326.77 1139.06,-311.57 1216.8,-288 1269.75,-271.95 1329.78,-259.91 1381.05,-251.4"/>
<polygon fill="black" stroke="black" points="1381.38,-254.89 1390.69,-249.82 1380.26,-247.98 1381.38,-254.89"/>
</g>
<!-- [root] module.vpc.var.private_subnet_cidrs (expand) -->
<g id="node29" class="node">
<title>[root] module.vpc.var.private_subnet_cidrs (expand)</title>
<ellipse fill="none" stroke="black" cx="623.8" cy="-90" rx="208.25" ry="18"/>
<text text-anchor="middle" x="623.8" y="-84.58" font-family="Times New Roman,serif" font-size="14.00">[root] module.vpc.var.private_subnet_cidrs (expand)</text>
</g>
<!-- [root] module.vpc.aws_subnet.private_subnets (expand)&#45;&gt;[root] module.vpc.var.private_subnet_cidrs (expand) -->
<g id="edge34" class="edge">
<title>[root] module.vpc.aws_subnet.private_subnets (expand)&#45;&gt;[root] module.vpc.var.private_subnet_cidrs (expand)</title>
<path fill="none" stroke="black" d="M848.03,-431.81C832.8,-405.83 806.8,-354.52 806.8,-307 806.8,-307 806.8,-307 806.8,-233 806.8,-171.68 741.87,-133.02 689.36,-111.79"/>
<polygon fill="black" stroke="black" points="690.71,-108.56 680.12,-108.2 688.17,-115.09 690.71,-108.56"/>
</g>
<!-- [root] module.vpc.aws_subnet.public_subnets (expand)&#45;&gt;[root] module.vpc.aws_vpc.DevOps_infra (expand) -->
<g id="edge35" class="edge">
<title>[root] module.vpc.aws_subnet.public_subnets (expand)&#45;&gt;[root] module.vpc.aws_vpc.DevOps_infra (expand)</title>
<path fill="none" stroke="black" d="M1572.57,-287.7C1560.93,-279.03 1546.66,-268.4 1533.98,-258.96"/>
<polygon fill="black" stroke="black" points="1536.42,-256.42 1526.31,-253.25 1532.24,-262.03 1536.42,-256.42"/>
</g>
<!-- [root] module.vpc.var.public_subnet_cidrs (expand) -->
<g id="node30" class="node">
<title>[root] module.vpc.var.public_subnet_cidrs (expand)</title>
<ellipse fill="none" stroke="black" cx="1794.8" cy="-162" rx="206.25" ry="18"/>
<text text-anchor="middle" x="1794.8" y="-156.57" font-family="Times New Roman,serif" font-size="14.00">[root] module.vpc.var.public_subnet_cidrs (expand)</text>
</g>
<!-- [root] module.vpc.aws_subnet.public_subnets (expand)&#45;&gt;[root] module.vpc.var.public_subnet_cidrs (expand) -->
<g id="edge36" class="edge">
<title>[root] module.vpc.aws_subnet.public_subnets (expand)&#45;&gt;[root] module.vpc.var.public_subnet_cidrs (expand)</title>
<path fill="none" stroke="black" d="M1620.21,-287.59C1655.59,-262.34 1721.25,-215.48 1761.19,-186.98"/>
<polygon fill="black" stroke="black" points="1763.18,-189.87 1769.28,-181.21 1759.11,-184.17 1763.18,-189.87"/>
</g>
<!-- [root] module.vpc.aws_vpc.DevOps_infra (expand)&#45;&gt;[root] module.vpc.provider[&quot;registry.terraform.io/hashicorp/aws&quot;] -->
<g id="edge37" class="edge">
<title>[root] module.vpc.aws_vpc.DevOps_infra (expand)&#45;&gt;[root] module.vpc.provider[&quot;registry.terraform.io/hashicorp/aws&quot;]</title>
<path fill="none" stroke="black" d="M1423.13,-215.52C1373.51,-204.49 1309.83,-190.34 1261.08,-179.5"/>
<polygon fill="black" stroke="black" points="1261.97,-176.12 1251.45,-177.36 1260.45,-182.95 1261.97,-176.12"/>
</g>
<!-- [root] module.vpc.var.cidr_block (expand) -->
<g id="node31" class="node">
<title>[root] module.vpc.var.cidr_block (expand)</title>
<ellipse fill="none" stroke="black" cx="1672.8" cy="-90" rx="170.82" ry="18"/>
<text text-anchor="middle" x="1672.8" y="-84.58" font-family="Times New Roman,serif" font-size="14.00">[root] module.vpc.var.cidr_block (expand)</text>
</g>
<!-- [root] module.vpc.aws_vpc.DevOps_infra (expand)&#45;&gt;[root] module.vpc.var.cidr_block (expand) -->
<g id="edge38" class="edge">
<title>[root] module.vpc.aws_vpc.DevOps_infra (expand)&#45;&gt;[root] module.vpc.var.cidr_block (expand)</title>
<path fill="none" stroke="black" d="M1514.15,-215.73C1528.43,-196.59 1553.38,-165.57 1579.8,-144 1593.98,-132.43 1611,-121.92 1626.59,-113.37"/>
<polygon fill="black" stroke="black" points="1628.07,-116.55 1635.24,-108.75 1624.77,-110.37 1628.07,-116.55"/>
</g>
<!-- [root] module.vpc.var.profile (expand) -->
<g id="node33" class="node">
<title>[root] module.vpc.var.profile (expand)</title>
<ellipse fill="none" stroke="black" cx="1004.8" cy="-90" rx="154.36" ry="18"/>
<text text-anchor="middle" x="1004.8" y="-84.58" font-family="Times New Roman,serif" font-size="14.00">[root] module.vpc.var.profile (expand)</text>
</g>
<!-- [root] module.vpc.provider[&quot;registry.terraform.io/hashicorp/aws&quot;]&#45;&gt;[root] module.vpc.var.profile (expand) -->
<g id="edge44" class="edge">
<title>[root] module.vpc.provider[&quot;registry.terraform.io/hashicorp/aws&quot;]&#45;&gt;[root] module.vpc.var.profile (expand)</title>
<path fill="none" stroke="black" d="M1147.31,-145.81C1121.45,-135.86 1087.31,-122.73 1058.93,-111.82"/>
<polygon fill="black" stroke="black" points="1060.36,-108.62 1049.77,-108.3 1057.85,-115.15 1060.36,-108.62"/>
</g>
<!-- [root] module.vpc.var.region (expand) -->
<g id="node34" class="node">
<title>[root] module.vpc.var.region (expand)</title>
<ellipse fill="none" stroke="black" cx="1330.8" cy="-90" rx="153.36" ry="18"/>
<text text-anchor="middle" x="1330.8" y="-84.58" font-family="Times New Roman,serif" font-size="14.00">[root] module.vpc.var.region (expand)</text>
</g>
<!-- [root] module.vpc.provider[&quot;registry.terraform.io/hashicorp/aws&quot;]&#45;&gt;[root] module.vpc.var.region (expand) -->
<g id="edge45" class="edge">
<title>[root] module.vpc.provider[&quot;registry.terraform.io/hashicorp/aws&quot;]&#45;&gt;[root] module.vpc.var.region (expand)</title>
<path fill="none" stroke="black" d="M1219.12,-145.29C1238.72,-135.76 1264.02,-123.47 1285.58,-112.98"/>
<polygon fill="black" stroke="black" points="1287,-116.18 1294.47,-108.67 1283.94,-109.89 1287,-116.18"/>
</g>
<!-- [root] var.profile -->
<g id="node20" class="node">
<title>[root] var.profile</title>
<polygon fill="none" stroke="black" points="2674.3,-324 2607.3,-324 2607.3,-288 2680.3,-288 2680.3,-318 2674.3,-324"/>
<polyline fill="none" stroke="black" points="2674.3,-324 2674.3,-318"/>
<polyline fill="none" stroke="black" points="2680.3,-318 2674.3,-318"/>
<text text-anchor="middle" x="2643.8" y="-300.57" font-family="Times New Roman,serif" font-size="14.00">var.profile</text>
</g>
<!-- [root] provider[&quot;registry.terraform.io/hashicorp/aws&quot;]&#45;&gt;[root] var.profile -->
<g id="edge57" class="edge">
<title>[root] provider[&quot;registry.terraform.io/hashicorp/aws&quot;]&#45;&gt;[root] var.profile</title>
<path fill="none" stroke="black" d="M2678.14,-360.41C2673.08,-352.54 2666.9,-342.93 2661.19,-334.04"/>
<polygon fill="black" stroke="black" points="2664.19,-332.24 2655.84,-325.72 2658.3,-336.02 2664.19,-332.24"/>
</g>
<!-- [root] var.region -->
<g id="node21" class="node">
<title>[root] var.region</title>
<polygon fill="none" stroke="black" points="2763.55,-324 2698.05,-324 2698.05,-288 2769.55,-288 2769.55,-318 2763.55,-324"/>
<polyline fill="none" stroke="black" points="2763.55,-324 2763.55,-318"/>
<polyline fill="none" stroke="black" points="2769.55,-318 2763.55,-318"/>
<text text-anchor="middle" x="2733.8" y="-300.57" font-family="Times New Roman,serif" font-size="14.00">var.region</text>
</g>
<!-- [root] provider[&quot;registry.terraform.io/hashicorp/aws&quot;]&#45;&gt;[root] var.region -->
<g id="edge58" class="edge">
<title>[root] provider[&quot;registry.terraform.io/hashicorp/aws&quot;]&#45;&gt;[root] var.region</title>
<path fill="none" stroke="black" d="M2699.47,-360.41C2704.53,-352.54 2710.71,-342.93 2716.42,-334.04"/>
<polygon fill="black" stroke="black" points="2719.31,-336.02 2721.77,-325.72 2713.42,-332.24 2719.31,-336.02"/>
</g>
<!-- [root] var.bucket_name -->
<g id="node18" class="node">
<title>[root] var.bucket_name</title>
<polygon fill="none" stroke="black" points="3022.43,-612 2917.18,-612 2917.18,-576 3028.43,-576 3028.43,-606 3022.43,-612"/>
<polyline fill="none" stroke="black" points="3022.43,-612 3022.43,-606"/>
<polyline fill="none" stroke="black" points="3028.43,-606 3022.43,-606"/>
<text text-anchor="middle" x="2972.8" y="-588.58" font-family="Times New Roman,serif" font-size="14.00">var.bucket_name</text>
</g>
<!-- [root] module.vpc.output.public_subnet_id (expand)&#45;&gt;[root] module.vpc.aws_subnet.public_subnets (expand) -->
<g id="edge40" class="edge">
<title>[root] module.vpc.output.public_subnet_id (expand)&#45;&gt;[root] module.vpc.aws_subnet.public_subnets (expand)</title>
<path fill="none" stroke="black" d="M1827.7,-431.73C1780.16,-406.16 1691,-358.2 1638.16,-329.78"/>
<polygon fill="black" stroke="black" points="1639.9,-326.74 1629.43,-325.09 1636.58,-332.91 1639.9,-326.74"/>
</g>
<!-- [root] module.vpc.output.vpc_id (expand)&#45;&gt;[root] module.vpc.aws_vpc.DevOps_infra (expand) -->
<g id="edge41" class="edge">
<title>[root] module.vpc.output.vpc_id (expand)&#45;&gt;[root] module.vpc.aws_vpc.DevOps_infra (expand)</title>
<path fill="none" stroke="black" d="M2010.97,-360.85C1941.45,-342.76 1825.16,-312.76 1724.8,-288 1679.68,-276.87 1629.32,-264.86 1587.88,-255.1"/>
<polygon fill="black" stroke="black" points="1588.73,-251.7 1578.2,-252.82 1587.13,-258.52 1588.73,-251.7"/>
</g>
<!-- [root] module.vpc (close) -->
<g id="node25" class="node">
<title>[root] module.vpc (close)</title>
<ellipse fill="none" stroke="black" cx="1020.8" cy="-594" rx="106.45" ry="18"/>
<text text-anchor="middle" x="1020.8" y="-588.58" font-family="Times New Roman,serif" font-size="14.00">[root] module.vpc (close)</text>
</g>
<!-- [root] module.vpc (close)&#45;&gt;[root] module.vpc.aws_route_table_association.private_subnet_asso (expand) -->
<g id="edge15" class="edge">
<title>[root] module.vpc (close)&#45;&gt;[root] module.vpc.aws_route_table_association.private_subnet_asso (expand)</title>
<path fill="none" stroke="black" d="M1024.27,-575.7C1025.74,-568.32 1027.5,-559.52 1029.15,-551.25"/>
<polygon fill="black" stroke="black" points="1032.56,-552.08 1031.09,-541.59 1025.69,-550.71 1032.56,-552.08"/>
</g>
<!-- [root] module.vpc (close)&#45;&gt;[root] module.vpc.aws_route_table_association.public_subnet_asso (expand) -->
<g id="edge16" class="edge">
<title>[root] module.vpc (close)&#45;&gt;[root] module.vpc.aws_route_table_association.public_subnet_asso (expand)</title>
<path fill="none" stroke="black" d="M1092.52,-580.32C1152.27,-569.76 1238.35,-554.55 1306.81,-542.44"/>
<polygon fill="black" stroke="black" points="1307.34,-545.9 1316.58,-540.72 1306.12,-539.01 1307.34,-545.9"/>
</g>
<!-- [root] module.vpc (close)&#45;&gt;[root] module.vpc.output.public_subnet_id (expand) -->
<g id="edge18" class="edge">
<title>[root] module.vpc (close)&#45;&gt;[root] module.vpc.output.public_subnet_id (expand)</title>
<path fill="none" stroke="black" d="M1096.83,-581.04C1110.13,-579.18 1123.85,-577.41 1136.8,-576 1359.61,-551.73 1421.47,-590.64 1639.8,-540 1703.77,-525.16 1773.35,-494.31 1816.77,-473.13"/>
<polygon fill="black" stroke="black" points="1818.18,-476.34 1825.6,-468.77 1815.08,-470.06 1818.18,-476.34"/>
</g>
<!-- [root] module.vpc (close)&#45;&gt;[root] module.vpc.output.vpc_id (expand) -->
<g id="edge19" class="edge">
<title>[root] module.vpc (close)&#45;&gt;[root] module.vpc.output.vpc_id (expand)</title>
<path fill="none" stroke="black" d="M1097.14,-581.05C1110.35,-579.2 1123.96,-577.43 1136.8,-576 1188.86,-570.2 1565.38,-572.05 1606.8,-540 1646.93,-508.95 1604.41,-463.98 1643.8,-432 1682.31,-400.75 1795.41,-387.64 1895.81,-382.27"/>
<polygon fill="black" stroke="black" points="1895.72,-385.78 1905.53,-381.77 1895.37,-378.79 1895.72,-385.78"/>
</g>
<!-- [root] module.vpc.output.private_subnet_id (expand) -->
<g id="node26" class="node">
<title>[root] module.vpc.output.private_subnet_id (expand)</title>
<ellipse fill="none" stroke="black" cx="624.8" cy="-522" rx="209.25" ry="18"/>
<text text-anchor="middle" x="624.8" y="-516.58" font-family="Times New Roman,serif" font-size="14.00">[root] module.vpc.output.private_subnet_id (expand)</text>
</g>
<!-- [root] module.vpc (close)&#45;&gt;[root] module.vpc.output.private_subnet_id (expand) -->
<g id="edge17" class="edge">
<title>[root] module.vpc (close)&#45;&gt;[root] module.vpc.output.private_subnet_id (expand)</title>
<path fill="none" stroke="black" d="M949.09,-580.32C886.36,-569.24 794.61,-553.02 724.7,-540.66"/>
<polygon fill="black" stroke="black" points="725.62,-537.27 715.16,-538.97 724.4,-544.16 725.62,-537.27"/>
</g>
<!-- [root] module.vpc.var.azs (expand) -->
<g id="node27" class="node">
<title>[root] module.vpc.var.azs (expand)</title>
<ellipse fill="none" stroke="black" cx="387.8" cy="-234" rx="142.38" ry="18"/>
<text text-anchor="middle" x="387.8" y="-228.57" font-family="Times New Roman,serif" font-size="14.00">[root] module.vpc.var.azs (expand)</text>
</g>
<!-- [root] module.vpc (close)&#45;&gt;[root] module.vpc.var.azs (expand) -->
<g id="edge20" class="edge">
<title>[root] module.vpc (close)&#45;&gt;[root] module.vpc.var.azs (expand)</title>
<path fill="none" stroke="black" d="M915.89,-590.65C750.5,-585.95 444.05,-572.88 406.8,-540 376.48,-513.23 387.8,-491.45 387.8,-451 387.8,-451 387.8,-451 387.8,-377 387.8,-337.74 387.8,-292.38 387.8,-263.69"/>
<polygon fill="black" stroke="black" points="391.3,-264 387.8,-254 384.3,-264 391.3,-264"/>
</g>
<!-- [root] module.vpc.var.bucket_name (expand) -->
<g id="node28" class="node">
<title>[root] module.vpc.var.bucket_name (expand)</title>
<ellipse fill="none" stroke="black" cx="179.8" cy="-162" rx="179.8" ry="18"/>
<text text-anchor="middle" x="179.8" y="-156.57" font-family="Times New Roman,serif" font-size="14.00">[root] module.vpc.var.bucket_name (expand)</text>
</g>
<!-- [root] module.vpc (close)&#45;&gt;[root] module.vpc.var.bucket_name (expand) -->
<g id="edge21" class="edge">
<title>[root] module.vpc (close)&#45;&gt;[root] module.vpc.var.bucket_name (expand)</title>
<path fill="none" stroke="black" d="M918.06,-589.04C764,-582.33 480.77,-566.77 382.8,-540 295.17,-516.06 198.8,-541.84 198.8,-451 198.8,-451 198.8,-451 198.8,-305 198.8,-265.39 191.45,-220.11 185.89,-191.54"/>
<polygon fill="black" stroke="black" points="189.35,-190.98 183.95,-181.87 182.49,-192.37 189.35,-190.98"/>
</g>
<!-- [root] module.vpc.output.private_subnet_id (expand)&#45;&gt;[root] module.vpc.aws_subnet.private_subnets (expand) -->
<g id="edge39" class="edge">
<title>[root] module.vpc.output.private_subnet_id (expand)&#45;&gt;[root] module.vpc.aws_subnet.private_subnets (expand)</title>
<path fill="none" stroke="black" d="M680.85,-504.23C713.43,-494.49 754.75,-482.13 789.37,-471.77"/>
<polygon fill="black" stroke="black" points="790.33,-475.14 798.91,-468.92 788.33,-468.43 790.33,-475.14"/>
</g>
<!-- [root] module.vpc (expand) -->
<g id="node35" class="node">
<title>[root] module.vpc (expand)</title>
<ellipse fill="none" stroke="black" cx="1004.8" cy="-18" rx="113.94" ry="18"/>
<text text-anchor="middle" x="1004.8" y="-12.57" font-family="Times New Roman,serif" font-size="14.00">[root] module.vpc (expand)</text>
</g>
<!-- [root] module.vpc.var.azs (expand)&#45;&gt;[root] module.vpc (expand) -->
<g id="edge46" class="edge">
<title>[root] module.vpc.var.azs (expand)&#45;&gt;[root] module.vpc (expand)</title>
<path fill="none" stroke="black" d="M383.66,-215.68C376.87,-182.51 367.74,-109.95 406.8,-72 440.08,-39.68 716.29,-26.68 881.45,-21.76"/>
<polygon fill="black" stroke="black" points="881.25,-25.27 891.14,-21.48 881.04,-18.27 881.25,-25.27"/>
</g>
<!-- [root] module.vpc.var.bucket_name (expand)&#45;&gt;[root] module.vpc (expand) -->
<g id="edge47" class="edge">
<title>[root] module.vpc.var.bucket_name (expand)&#45;&gt;[root] module.vpc (expand)</title>
<path fill="none" stroke="black" d="M208.85,-143.77C245.78,-122.81 312.16,-88.2 373.8,-72 467.1,-47.49 728.99,-31.68 884.5,-24.16"/>
<polygon fill="black" stroke="black" points="884.63,-27.65 894.46,-23.68 884.3,-20.66 884.63,-27.65"/>
</g>
<!-- [root] module.vpc.var.private_subnet_cidrs (expand)&#45;&gt;[root] module.vpc (expand) -->
<g id="edge49" class="edge">
<title>[root] module.vpc.var.private_subnet_cidrs (expand)&#45;&gt;[root] module.vpc (expand)</title>
<path fill="none" stroke="black" d="M709.78,-73.2C773.14,-61.56 858.83,-45.82 921.54,-34.3"/>
<polygon fill="black" stroke="black" points="921.88,-37.79 931.09,-32.54 920.62,-30.91 921.88,-37.79"/>
</g>
<!-- [root] module.vpc.var.public_subnet_cidrs (expand)&#45;&gt;[root] module.vpc (expand) -->
<g id="edge51" class="edge">
<title>[root] module.vpc.var.public_subnet_cidrs (expand)&#45;&gt;[root] module.vpc (expand)</title>
<path fill="none" stroke="black" d="M1819.48,-143.66C1843.52,-124.74 1873.64,-94.18 1852.8,-72 1828.39,-46.01 1357.07,-29.05 1127.89,-22.3"/>
<polygon fill="black" stroke="black" points="1128.1,-18.8 1118,-22.01 1127.89,-25.8 1128.1,-18.8"/>
</g>
<!-- [root] module.vpc.var.cidr_block (expand)&#45;&gt;[root] module.vpc (expand) -->
<g id="edge48" class="edge">
<title>[root] module.vpc.var.cidr_block (expand)&#45;&gt;[root] module.vpc (expand)</title>
<path fill="none" stroke="black" d="M1554.92,-76.65C1428.65,-63.41 1230.16,-42.61 1109.3,-29.95"/>
<polygon fill="black" stroke="black" points="1109.67,-26.47 1099.36,-28.91 1108.94,-33.43 1109.67,-26.47"/>
</g>
<!-- [root] module.vpc.provider[&quot;registry.terraform.io/hashicorp/aws&quot;] (close) -->
<g id="node32" class="node">
<title>[root] module.vpc.provider[&quot;registry.terraform.io/hashicorp/aws&quot;] (close)</title>
<ellipse fill="none" stroke="black" cx="1429.8" cy="-594" rx="284.09" ry="18"/>
<text text-anchor="middle" x="1429.8" y="-588.58" font-family="Times New Roman,serif" font-size="14.00">[root] module.vpc.provider[&quot;registry.terraform.io/hashicorp/aws&quot;] (close)</text>
</g>
<!-- [root] module.vpc.provider[&quot;registry.terraform.io/hashicorp/aws&quot;] (close)&#45;&gt;[root] module.vpc.aws_route_table_association.private_subnet_asso (expand) -->
<g id="edge42" class="edge">
<title>[root] module.vpc.provider[&quot;registry.terraform.io/hashicorp/aws&quot;] (close)&#45;&gt;[root] module.vpc.aws_route_table_association.private_subnet_asso (expand)</title>
<path fill="none" stroke="black" d="M1337.19,-576.59C1279.56,-566.37 1205.13,-553.18 1144.54,-542.45"/>
<polygon fill="black" stroke="black" points="1145.34,-539.03 1134.88,-540.74 1144.12,-545.93 1145.34,-539.03"/>
</g>
<!-- [root] module.vpc.provider[&quot;registry.terraform.io/hashicorp/aws&quot;] (close)&#45;&gt;[root] module.vpc.aws_route_table_association.public_subnet_asso (expand) -->
<g id="edge43" class="edge">
<title>[root] module.vpc.provider[&quot;registry.terraform.io/hashicorp/aws&quot;] (close)&#45;&gt;[root] module.vpc.aws_route_table_association.public_subnet_asso (expand)</title>
<path fill="none" stroke="black" d="M1426.59,-575.7C1425.22,-568.32 1423.59,-559.52 1422.05,-551.25"/>
<polygon fill="black" stroke="black" points="1425.52,-550.79 1420.26,-541.59 1418.64,-552.06 1425.52,-550.79"/>
</g>
<!-- [root] module.vpc.var.profile (expand)&#45;&gt;[root] module.vpc (expand) -->
<g id="edge50" class="edge">
<title>[root] module.vpc.var.profile (expand)&#45;&gt;[root] module.vpc (expand)</title>
<path fill="none" stroke="black" d="M1004.8,-71.7C1004.8,-64.41 1004.8,-55.73 1004.8,-47.54"/>
<polygon fill="black" stroke="black" points="1008.3,-47.62 1004.8,-37.62 1001.3,-47.62 1008.3,-47.62"/>
</g>
<!-- [root] module.vpc.var.region (expand)&#45;&gt;[root] module.vpc (expand) -->
<g id="edge52" class="edge">
<title>[root] module.vpc.var.region (expand)&#45;&gt;[root] module.vpc (expand)</title>
<path fill="none" stroke="black" d="M1259.26,-73.64C1206.68,-62.35 1135.32,-47.03 1081.56,-35.48"/>
<polygon fill="black" stroke="black" points="1082.35,-32.07 1071.84,-33.39 1080.88,-38.92 1082.35,-32.07"/>
</g>
<!-- [root] output.cicd_server_ip (expand) -->
<g id="node36" class="node">
<title>[root] output.cicd_server_ip (expand)</title>
<ellipse fill="none" stroke="black" cx="1883.8" cy="-594" rx="151.86" ry="18"/>
<text text-anchor="middle" x="1883.8" y="-588.58" font-family="Times New Roman,serif" font-size="14.00">[root] output.cicd_server_ip (expand)</text>
</g>
<!-- [root] output.cicd_server_ip (expand)&#45;&gt;[root] aws_instance.cicd_server (expand) -->
<g id="edge53" class="edge">
<title>[root] output.cicd_server_ip (expand)&#45;&gt;[root] aws_instance.cicd_server (expand)</title>
<path fill="none" stroke="black" d="M1967.85,-578.58C2035.72,-566.94 2131.06,-550.58 2200.73,-538.62"/>
<polygon fill="black" stroke="black" points="2200.93,-542.14 2210.2,-537 2199.75,-535.24 2200.93,-542.14"/>
</g>
<!-- [root] output.monitoring_server_ip (expand) -->
<g id="node37" class="node">
<title>[root] output.monitoring_server_ip (expand)</title>
<ellipse fill="none" stroke="black" cx="2723.8" cy="-594" rx="175.81" ry="18"/>
<text text-anchor="middle" x="2723.8" y="-588.58" font-family="Times New Roman,serif" font-size="14.00">[root] output.monitoring_server_ip (expand)</text>
</g>
<!-- [root] output.monitoring_server_ip (expand)&#45;&gt;[root] aws_instance.monitoring_server (expand) -->
<g id="edge54" class="edge">
<title>[root] output.monitoring_server_ip (expand)&#45;&gt;[root] aws_instance.monitoring_server (expand)</title>
<path fill="none" stroke="black" d="M2680.45,-576.23C2655.91,-566.74 2624.95,-554.77 2598.61,-544.58"/>
<polygon fill="black" stroke="black" points="2600.01,-541.37 2589.42,-541.03 2597.49,-547.9 2600.01,-541.37"/>
</g>
<!-- [root] provider[&quot;registry.terraform.io/hashicorp/aws&quot;] (close) -->
<g id="node38" class="node">
<title>[root] provider[&quot;registry.terraform.io/hashicorp/aws&quot;] (close)</title>
<ellipse fill="none" stroke="black" cx="2291.8" cy="-594" rx="237.69" ry="18"/>
<text text-anchor="middle" x="2291.8" y="-588.58" font-family="Times New Roman,serif" font-size="14.00">[root] provider[&quot;registry.terraform.io/hashicorp/aws&quot;] (close)</text>
</g>
<!-- [root] provider[&quot;registry.terraform.io/hashicorp/aws&quot;] (close)&#45;&gt;[root] aws_instance.cicd_server (expand) -->
<g id="edge55" class="edge">
<title>[root] provider[&quot;registry.terraform.io/hashicorp/aws&quot;] (close)&#45;&gt;[root] aws_instance.cicd_server (expand)</title>
<path fill="none" stroke="black" d="M2291.8,-575.7C2291.8,-568.41 2291.8,-559.73 2291.8,-551.54"/>
<polygon fill="black" stroke="black" points="2295.3,-551.62 2291.8,-541.62 2288.3,-551.62 2295.3,-551.62"/>
</g>
<!-- [root] provider[&quot;registry.terraform.io/hashicorp/aws&quot;] (close)&#45;&gt;[root] aws_instance.monitoring_server (expand) -->
<g id="edge56" class="edge">
<title>[root] provider[&quot;registry.terraform.io/hashicorp/aws&quot;] (close)&#45;&gt;[root] aws_instance.monitoring_server (expand)</title>
<path fill="none" stroke="black" d="M2352.24,-576.14C2387.5,-566.31 2432.21,-553.84 2469.47,-543.45"/>
<polygon fill="black" stroke="black" points="2470.12,-546.9 2478.81,-540.85 2468.24,-540.16 2470.12,-546.9"/>
</g>
<!-- [root] root -->
<g id="node39" class="node">
<title>[root] root</title>
<ellipse fill="none" stroke="black" cx="2087.8" cy="-666" rx="50.07" ry="18"/>
<text text-anchor="middle" x="2087.8" y="-660.58" font-family="Times New Roman,serif" font-size="14.00">[root] root</text>
</g>
<!-- [root] root&#45;&gt;[root] var.bucket_name -->
<g id="edge64" class="edge">
<title>[root] root&#45;&gt;[root] var.bucket_name</title>
<path fill="none" stroke="black" d="M2138.17,-665.15C2265.56,-664.81 2610.92,-659.38 2905.41,-612.39"/>
<polygon fill="black" stroke="black" points="2905.94,-615.85 2915.25,-610.79 2904.82,-608.94 2905.94,-615.85"/>
</g>
<!-- [root] root&#45;&gt;[root] module.vpc (close) -->
<g id="edge59" class="edge">
<title>[root] root&#45;&gt;[root] module.vpc (close)</title>
<path fill="none" stroke="black" d="M2037.67,-663.79C1895.93,-660.04 1480.25,-646.67 1136.8,-612 1127.24,-611.03 1117.26,-609.85 1107.34,-608.55"/>
<polygon fill="black" stroke="black" points="1108.06,-605.12 1097.69,-607.25 1107.13,-612.06 1108.06,-605.12"/>
</g>
<!-- [root] root&#45;&gt;[root] module.vpc.provider[&quot;registry.terraform.io/hashicorp/aws&quot;] (close) -->
<g id="edge60" class="edge">
<title>[root] root&#45;&gt;[root] module.vpc.provider[&quot;registry.terraform.io/hashicorp/aws&quot;] (close)</title>
<path fill="none" stroke="black" d="M2040.22,-659.94C1945.63,-649.88 1730.38,-626.98 1582.53,-611.25"/>
<polygon fill="black" stroke="black" points="1582.94,-607.77 1572.62,-610.19 1582.2,-614.73 1582.94,-607.77"/>
</g>
<!-- [root] root&#45;&gt;[root] output.cicd_server_ip (expand) -->
<g id="edge61" class="edge">
<title>[root] root&#45;&gt;[root] output.cicd_server_ip (expand)</title>
<path fill="none" stroke="black" d="M2052.74,-652.97C2022.49,-642.59 1978.18,-627.38 1942.53,-615.15"/>
<polygon fill="black" stroke="black" points="1943.79,-611.88 1933.2,-611.95 1941.52,-618.5 1943.79,-611.88"/>
</g>
<!-- [root] root&#45;&gt;[root] output.monitoring_server_ip (expand) -->
<g id="edge62" class="edge">
<title>[root] root&#45;&gt;[root] output.monitoring_server_ip (expand)</title>
<path fill="none" stroke="black" d="M2135.35,-659.77C2231.87,-649.14 2453.65,-624.73 2595.69,-609.1"/>
<polygon fill="black" stroke="black" points="2595.99,-612.59 2605.54,-608.02 2595.22,-605.63 2595.99,-612.59"/>
</g>
<!-- [root] root&#45;&gt;[root] provider[&quot;registry.terraform.io/hashicorp/aws&quot;] (close) -->
<g id="edge63" class="edge">
<title>[root] root&#45;&gt;[root] provider[&quot;registry.terraform.io/hashicorp/aws&quot;] (close)</title>
<path fill="none" stroke="black" d="M2122.87,-652.97C2152.71,-642.73 2196.23,-627.8 2231.62,-615.65"/>
<polygon fill="black" stroke="black" points="2232.56,-619.03 2240.89,-612.47 2230.29,-612.41 2232.56,-619.03"/>
</g>
</g>
</svg>
